<svg xmlns="http://www.w3.org/2000/svg" viewBox="0 0 36 36"><g data-name="Layer 2"><path d="M8.81 18A9.19 9.19 0 1118 27.19 9.2 9.2 0 018.81 18zM27.49 0h-19A8.54 8.54 0 000 8.51v19A8.55 8.55 0 008.51 36h19A8.54 8.54 0 0036 27.49v-19A8.52 8.52 0 0027.49 0zm-19 2.13h19a6.38 6.38 0 016.38 6.38v19a6.38 6.38 0 01-6.38 6.38h-19a6.38 6.38 0 01-6.38-6.38v-19a6.38 6.38 0 016.4-6.38zm20.89 2.68a1.87 1.87 0 101.87 1.87 1.87 1.87 0 00-1.87-1.87zM29.6 18A11.61 11.61 0 1018 29.6 11.61 11.61 0 0029.6 18z" fill="#eaaa0a" fill-rule="evenodd" data-name="Layer 1"/></g></svg>