<svg data-name="Layer 1" xmlns="http://www.w3.org/2000/svg" viewBox="0 0 72 72"><path d="M60.73 48.41v-.06a4.85 4.85 0 00-1.62-.57A13.7 13.7 0 0152.48 43a16.94 16.94 0 01-2.31-4 1.93 1.93 0 01.09-1.7h.05a4.88 4.88 0 012.25-1.48 8.68 8.68 0 003.07-1.56 1.12 1.12 0 00.47-.58 1.23 1.23 0 01.08-.22 1.34 1.34 0 00-.08-.82 2.49 2.49 0 00-1-1 2.51 2.51 0 00-1.87-.17 6.85 6.85 0 01-1.62.47v.05a4.59 4.59 0 01-1.87-.05 1.4 1.4 0 000-.41c0-1.1.08-2.25.08-3.49a34.19 34.19 0 00-.11-5.53v-.06a12.55 12.55 0 00-5.21-7.7 12.88 12.88 0 00-6.5-2.23 19.72 19.72 0 00-2.3-.14 14.26 14.26 0 00-8.7 2.8 13.56 13.56 0 00-4.25 5.51 15.48 15.48 0 00-.65 6.75c0 1.51.19 3 .08 4.44l-.06.08a6.3 6.3 0 01-2.12-.03c-.52-.08-1-.3-1.65-.47a1.81 1.81 0 00-1.62.36 1.7 1.7 0 00-.93 1.37.17.17 0 000 .11 1.52 1.52 0 00.55.9 2.28 2.28 0 00.57.41v.06a20.07 20.07 0 003.43 1.48 2.33 2.33 0 011.53 1.48 3.74 3.74 0 01-.6 2.6 15.8 15.8 0 01-5.21 6A13.07 13.07 0 0112.2 48a2.29 2.29 0 00-1.37.82.23.23 0 00-.08.17 1.14 1.14 0 00.22 1 1.56 1.56 0 00.6.46 12.92 12.92 0 003.54 1.24 19.44 19.44 0 012.22.55s.11.24.25.6c.22.63.3 1.4.55 2.16a.63.63 0 00.46.42 1.29 1.29 0 00.85-.06 14.34 14.34 0 015.56-.18c1.87.47 3.43 1.73 5.27 2.82a8.26 8.26 0 004.16 1.54 26.49 26.49 0 003.57-.08 6.83 6.83 0 002.8-.93l.05-.06c1.89-1 3.54-2.36 5.4-3.18a10.51 10.51 0 012.2-.25 31.59 31.59 0 014.57.25h.17a.87.87 0 00.52-.28c.11-.13.11-.27.16-.35s.09-.19 0-.08c.06 0 .06-.09.09-.11a6 6 0 01.85-2.25 1.29 1.29 0 011-.3h.11a18.42 18.42 0 003.61-1h.06a3.21 3.21 0 001.43-1 1 1 0 00-.28-1.48z" fill="#262626" fill-rule="evenodd"/></svg>