<svg xmlns="http://www.w3.org/2000/svg" viewBox="0 0 216 216"><path d="M179.2 144v-.2h-.2v-.1.1c-1.8-1.2-3.6-1.3-4.7-1.7h-.1c-7.6-2.5-14.1-7.6-18.9-13.9-2.7-3.6-5.1-7.4-6.7-11.4-.6-1.8-.6-3.8.2-4.9h.2c1.3-1.9 3.8-3.2 6.5-4.3 3-.9 6.2-2.2 8.9-4.5.6-.3 1-.9 1.3-1.7 0-.2.2-.4.2-.6.2-.6.2-1.5-.2-2.4-.7-1.6-2.1-2.3-3-2.9-1.7-1-3.7-1-5.4-.5-1.8.6-3.3 1.3-4.7 1.3-.1 0-.1.2-.1.2-2 .2-4 .3-5.4-.2 0-.2 0-.7-.2-1.2 0-3.2.2-6.5.2-10.1.2-5.2.4-10.6-.3-16v-.2c-1.7-9.1-7.6-16.9-15-22.3-5.4-3.7-11.9-5.9-18.5-6.4-2.2-.2-4.4-.4-6.6-.4-8.8.2-18 2.5-25 8.1-5.4 4.1-9.7 9.7-12.3 15.9v.1c-2.5 6.3-2.3 13.2-1.9 19.5.1 4.4.6 8.6.2 12.8 0 .1 0 .1-.2.2-2 .3-4.1.2-6.3-.2h-.1c-1.5-.2-2.9-.9-4.8-1.3h-.2c-1.7-.5-3.4 0-4.7 1h-.1v.1c-1.1.7-2.6 1.8-2.7 4 0 .1 0 .2.1.3h.1c.2 1.3 1 2.1 1.6 2.6.6.6 1.2 1 1.7 1.2v.2c3.3 2.1 6.9 3 9.9 4.3 2.2 1 4 2.4 4.4 4.3.6 2.3-.4 5-1.7 7.5-3.4 6.9-8.6 12.8-15 17.3-3.2 2.2-7 3.9-11 5h-.1c-.9.4-2.8.6-4 2.4-.1.1-.2.2-.2.5-.3 1.1 0 2.3.6 3 .5.6 1.1 1 1.7 1.3 3.2 2 7 2.7 10.2 3.6 2.5.6 4.7.9 6.4 1.6.1.2.3.7.7 1.7.6 1.8.9 4 1.6 6.3.2.6.7 1 1.3 1.2 1.5.4 2.3-.2 2.5-.2 0 0 .1 0 .1-.1 5.6-.9 11.2-1.7 16.2-.5 5.4 1.3 9.9 5 15.2 8.2 3.4 2.2 7.4 4.3 12 4.4 3.5.2 6.9 0 10.3-.2 2.9-.2 5.6-1.3 8.1-2.7l.2-.2c5.5-3 10.2-6.8 15.6-9.2 1.7-.6 4-.6 6.3-.7 4.4-.1 8.9.2 13.2.7h.5c.6-.1 1.3-.5 1.5-.8.3-.4.3-.8.5-1 .2-.3.2-.6 0-.2.2-.1.2-.2.2-.3.7-2.7 1.3-5.1 2.5-6.5.6-.6 1.6-.9 2.8-.9h.3c3.7-.5 7.2-1.8 10.5-2.9 0-.2 0-.2.2-.2 1.1-.5 2.9-1.1 4.1-2.8H180c1.1-1.3.6-3.2-.8-4.1z" fill-rule="evenodd" clip-rule="evenodd" fill="#262626"/></svg>