<?xml version="1.0" encoding="utf-8"?>
<!-- Generator: Adobe Illustrator 23.1.1, SVG Export Plug-In . SVG Version: 6.00 Build 0)  -->
<svg version="1.1" id="Layer_1" xmlns="http://www.w3.org/2000/svg" xmlns:xlink="http://www.w3.org/1999/xlink" x="0px" y="0px"
	 viewBox="0 0 216 216" style="enable-background:new 0 0 216 216;" xml:space="preserve">
<style type="text/css">
	.st0{fill-rule:evenodd;clip-rule:evenodd;fill:#262626;}
</style>
<path class="st0" d="M179.2,144v-0.2H179c0,0,0,0,0-0.1v0.1c-1.8-1.2-3.6-1.3-4.7-1.7h-0.1c-7.6-2.5-14.1-7.6-18.9-13.9
	c-2.7-3.6-5.1-7.4-6.7-11.4l0,0c-0.6-1.8-0.6-3.8,0.2-4.9h0.2c1.3-1.9,3.8-3.2,6.5-4.3l0,0c3-0.9,6.2-2.2,8.9-4.5l0,0
	c0.6-0.3,1-0.9,1.3-1.7c0-0.2,0.2-0.4,0.2-0.6c0.2-0.6,0.2-1.5-0.2-2.4l0,0c-0.7-1.6-2.1-2.3-3-2.9l0,0c-1.7-1-3.7-1-5.4-0.5l0,0
	c-1.8,0.6-3.3,1.3-4.7,1.3c-0.1,0-0.1,0.2-0.1,0.2c-2,0.2-4,0.3-5.4-0.2c0-0.2,0-0.7-0.2-1.2l0,0c0-3.2,0.2-6.5,0.2-10.1l0,0
	c0.2-5.2,0.4-10.6-0.3-16v-0.2c-1.7-9.1-7.6-16.9-15-22.3c-5.4-3.7-11.9-5.9-18.5-6.4l0,0c-2.2-0.2-4.4-0.4-6.6-0.4
	c-8.8,0.2-18,2.5-25,8.1c-5.4,4.1-9.7,9.7-12.3,15.9c0,0,0,0,0,0.1c-2.5,6.3-2.3,13.2-1.9,19.5l0,0c0.1,4.4,0.6,8.6,0.2,12.8
	c0,0.1,0,0.1-0.2,0.2c-2,0.3-4.1,0.2-6.3-0.2c0,0,0,0-0.1,0c-1.5-0.2-2.9-0.9-4.8-1.3c0,0,0,0-0.2,0c-1.7-0.5-3.4,0-4.7,1h-0.1
	c0,0.1,0,0.1,0,0.1c-1.1,0.7-2.6,1.8-2.7,4c0,0.1,0,0.2,0.1,0.3h0.1c0.2,1.3,1,2.1,1.6,2.6c0.6,0.6,1.2,1,1.7,1.2c0,0.2,0,0.2,0,0.2
	c3.3,2.1,6.9,3,9.9,4.3l0,0c2.2,1,4,2.4,4.4,4.3c0.6,2.3-0.4,5-1.7,7.5l0,0c-3.4,6.9-8.6,12.8-15,17.3c-3.2,2.2-7,3.9-11,5h-0.1
	c-0.9,0.4-2.8,0.6-4,2.4c-0.1,0.1-0.2,0.2-0.2,0.5c-0.3,1.1,0,2.3,0.6,3c0.5,0.6,1.1,1,1.7,1.3l0,0c3.2,2,7,2.7,10.2,3.6l0,0
	c2.5,0.6,4.7,0.9,6.4,1.6c0.1,0.2,0.3,0.7,0.7,1.7c0.6,1.8,0.9,4,1.6,6.3c0.2,0.6,0.7,1,1.3,1.2c1.5,0.4,2.3-0.2,2.5-0.2
	c0,0,0.1,0,0.1-0.1c5.6-0.9,11.2-1.7,16.2-0.5l0,0c5.4,1.3,9.9,5,15.2,8.2l0,0c3.4,2.2,7.4,4.3,12,4.4l0,0c3.5,0.2,6.9,0,10.3-0.2
	l0,0c2.9-0.2,5.6-1.3,8.1-2.7l0.2-0.2c5.5-3,10.2-6.8,15.6-9.2l0,0c1.7-0.6,4-0.6,6.3-0.7l0,0c4.4-0.1,8.9,0.2,13.2,0.7
	c0.2,0,0.4,0,0.5,0c0.6-0.1,1.3-0.5,1.5-0.8c0.3-0.4,0.3-0.8,0.5-1c0.2-0.3,0.2-0.6,0-0.2c0.2-0.1,0.2-0.2,0.2-0.3
	c0.7-2.7,1.3-5.1,2.5-6.5c0.6-0.6,1.6-0.9,2.8-0.9c0.1,0,0.2,0,0.3,0c3.7-0.5,7.2-1.8,10.5-2.9c0-0.2,0-0.2,0.2-0.2
	c1.1-0.5,2.9-1.1,4.1-2.8c0,0,0,0,0.2,0H180C181.1,146.8,180.6,144.9,179.2,144L179.2,144z"/>
</svg>
