<svg version="1.1" id="Layer_1" xmlns="http://www.w3.org/2000/svg" x="0" y="0" viewBox="0 0 216 216" xml:space="preserve"><style>.st0{fill:#fff}</style><path class="st0" d="M146.4 132.9h-5.5v4.8h5.2c2.6 0 3.1-1.3 3.1-2.3 0-1.1-.4-2.5-2.8-2.5zM71.5 94.4h5.6c.1-2.1.3-4 .4-6.1H72c-.2 2.1-.4 4.2-.5 6.1zM146.4 122.2h-5.6v4.9h5.3c2.6 0 3.1-1.3 3.1-2.4.1-1.2-.2-2.5-2.8-2.5z"/><path class="st0" d="M107.6 31.4c-42.4 0-76.8 34.4-76.8 76.8S65.2 185 107.6 185s76.8-34.4 76.8-76.8-34.4-76.8-76.8-76.8zm-20.8 57h-5.1c-.1 2.1-.3 4-.4 6.1h5.1l-.3 4.8h-5.2l-.3 6.7h-4.2l.4-6.7h-5.6c-.1 2.2-.3 4.5-.4 6.7h-4.2l.4-6.7h-5.5l.3-4.8h5.4l.4-6.1h-5.5l.3-4.7h5.5l.4-6.2h4.2l-.4 6.2h5.6c.1-2.1.3-4.3.4-6.2h4.2l-.4 6.2H87l-.2 4.7zm44.3 28.7l-9 26.8h-4.3l-5.3-17.1c-1.6 5.6-3.2 11.3-4.8 17.1H103l-8.6-26.8v-.9h6.6l4.7 15.3c1.3-5 2.9-10.1 4.3-15.3h5.6l4.8 15.6c1.6-5.1 3.4-10.3 4.9-15.6h6v.9zm0-35.9l-9 26.8h-4.3l-5.3-17.1c-1.6 5.6-3.2 11.3-4.8 17.1H103l-8.6-26.8v-.9h6.6l4.7 15.3c1.3-5 2.9-10.1 4.3-15.3h5.6l4.8 15.6c1.6-5.1 3.4-10.3 4.9-15.6h6v.9zm16.5 62.6h-13.2v-27.7h12.7c5.5 0 8.4 3.5 8.4 8.1 0 2.6-1.1 4.4-2.6 5.6 1.6 1.3 2.8 3.5 2.8 6 .1 5.1-3.6 8-8.1 8zm-2.4-35.9h-10.7V80.2h11.8c7.8 0 12.8 6.5 12.8 13.8 0 8-5.5 13.9-13.9 13.9z"/><path class="st0" d="M144.9 86.3h-3.7v15.5h3.6c5.2 0 8.2-3.7 8.2-7.6 0-4.1-2.1-7.9-8.1-7.9z"/></svg>