<svg viewBox="4.921 6 88 88" xmlns="http://www.w3.org/2000/svg"><path d="M83.6 28.3c.6.6 1.4.9 2.1.9s1.5-.3 2.1-.9l2.8-2.8c.6-.6.9-1.3.9-2.1s-.3-1.6-.9-2.1l-2.8-2.8c-1.2-1.2-3.1-1.2-4.2 0l-2.8 2.8c-.6.6-.9 1.3-.9 2.1s.3 1.6.9 2.1l-2.1 2.1c-5.5-4.9-12.4-8.2-20.1-9.2V16H60c2.8 0 5-2.2 5-5s-2.2-5-5-5H47c-2.8 0-5 2.2-5 5s2.2 5 5 5h1.5v2.3c-1.6.2-3.1.5-4.6.9-1.6.4-2.6 2.1-2.2 3.7.4 1.6 2 2.6 3.7 2.2 2-.5 4.1-.8 6.1-1V29c0 1.1.9 2 2 2s2-.9 2-2v-4.9c4.3.3 8.4 1.4 12.1 3.3l-2.4 4.2c-.5 1-.2 2.2.7 2.7.3.2.7.3 1 .3.7 0 1.4-.4 1.7-1l2.4-4.2c3.5 2.3 6.4 5.2 8.8 8.7l-4.2 2.5c-.9.6-1.3 1.8-.7 2.7.4.6 1 1 1.7 1 .3 0 .7-.1 1-.3l4.2-2.5c2 3.8 3.2 8.1 3.4 12.6h-4.8c-1.1 0-2 .9-2 2s.9 2 2 2h4.8c-.3 4.5-1.5 8.7-3.4 12.6l-4.2-2.5c-1-.6-2.2-.3-2.7.7s-.3 2.2.7 2.7l4.2 2.5c-2.3 3.4-5.3 6.4-8.8 8.7l-2.4-4.2c-.5-1-1.8-1.3-2.7-.7-1 .5-1.3 1.8-.7 2.7l2.4 4.2c-3.7 1.8-7.8 3-12.1 3.3V83c0-1.1-.9-2-2-2s-2 .9-2 2v4.9c-2.1-.1-4.1-.4-6.2-1-1.6-.4-3.2.5-3.7 2.2-.4 1.6.5 3.2 2.2 3.7 3.1.8 6.3 1.2 9.6 1.2 21 0 38-17 38-38 0-9.9-3.8-18.9-10-25.6l2.2-2.1zm2.1-6.4l1.4 1.4-1.4 1.4-1.4-1.4 1.4-1.4zM47 12c-.5 0-1-.5-1-1s.5-1 1-1h13c.5 0 1 .5 1 1s-.5 1-1 1h-5.5v6h-2v-6H47zm9.5 46.9l.1-.1 13.8-15.9c.6-.7.7-1.8.1-2.6s-1.6-1-2.5-.5l-18.6 9.8c-1.2.6-2.1 1.6-2.6 2.7-1 2.2-.5 4.8 1.2 6.6 1.2 1.2 2.8 1.9 4.3 1.9 1.5-.3 3-.8 4.2-1.9zm-5.6-3c-.6-.6-.7-1.4-.4-2.2.1-.3.4-.5.8-.7l9.2-4.8-6.8 7.8c-.8.7-2.1.7-2.8-.1zM39.5 31c0 1.1-.9 2-2 2h-9.6c-1.1 0-2-.9-2-2s.9-2 2-2h9.6c1.1 0 2 .9 2 2zm0 10c0 1.1-.9 2-2 2H22.1c-1.1 0-2-.9-2-2s.9-2 2-2h15.4c1.1 0 2 .9 2 2zm0 10c0 1.1-.9 2-2 2H16.3c-1.1 0-2-.9-2-2s.9-2 2-2h21.2c1.1 0 2 .9 2 2zm0 10c0 1.1-.9 2-2 2h-27c-1.1 0-2-.9-2-2s.9-2 2-2h27c1.1 0 2 .9 2 2zm0 10c0 1.1-.9 2-2 2H16.3c-1.1 0-2-.9-2-2s.9-2 2-2h21.2c1.1 0 2 .9 2 2zm0 10c0 1.1-.9 2-2 2H22.1c-1.1 0-2-.9-2-2s.9-2 2-2h15.4c1.1 0 2 .9 2 2z" fill="#fff"/><g stroke-width=".565" fill="#fff" stroke="#fff"><path d="M61.767 27.286c.1.1.3.2.5.2s.4-.1.5-.2c.3-.3.3-.8 0-1l-1.8-1.8c-.3-.3-.8-.3-1 0-.3.3-.3.8 0 1l1.8 1.8zM67.467 33.086c.1.1.3.2.5.2s.4-.1.5-.2c.3-.3.3-.8 0-1l-1.8-1.8c-.3-.3-.8-.3-1 0-.2.3-.3.8 0 1l1.8 1.8zM60.467 33.286c.2 0 .4-.1.5-.2l1.8-1.8c.3-.3.3-.8 0-1-.3-.3-.8-.3-1 0l-1.8 1.7c-.3.3-.3.8 0 1 .1.2.3.3.5.3zM66.267 27.486c.2 0 .4-.1.5-.2l1.8-1.8c.3-.3.3-.8 0-1-.3-.2-.8-.3-1 0l-1.8 1.8c-.3.3-.3.8 0 1 .1.1.3.2.5.2z" transform="matrix(.88398 0 0 .88643 -44.31 1.388)"/></g><path d="M5.92 9.393c.258.126.527.188.786.188a1.791 1.791 0 00.795-3.396A1.789 1.789 0 105.92 9.393z" fill="#fff"/><g stroke-width=".565" fill="#fff" stroke="#fff"><path d="M61.767 27.286c.1.1.3.2.5.2s.4-.1.5-.2c.3-.3.3-.8 0-1l-1.8-1.8c-.3-.3-.8-.3-1 0-.3.3-.3.8 0 1l1.8 1.8zM67.467 33.086c.1.1.3.2.5.2s.4-.1.5-.2c.3-.3.3-.8 0-1l-1.8-1.8c-.3-.3-.8-.3-1 0-.2.3-.3.8 0 1l1.8 1.8zM60.467 33.286c.2 0 .4-.1.5-.2l1.8-1.8c.3-.3.3-.8 0-1-.3-.3-.8-.3-1 0l-1.8 1.7c-.3.3-.3.8 0 1 .1.2.3.3.5.3zM66.267 27.486c.2 0 .4-.1.5-.2l1.8-1.8c.3-.3.3-.8 0-1-.3-.2-.8-.3-1 0l-1.8 1.8c-.3.3-.3.8 0 1 .1.1.3.2.5.2z" transform="matrix(.88398 0 0 .88643 -30.388 -13.925)"/></g></svg>