<svg viewBox="3.654 2.709 58.553 58.696" xmlns="http://www.w3.org/2000/svg"><path d="M4.212 61.3c.144.07.294.105.439.105a1 1 0 00.444-1.897 1 1 0 00-.883 1.792zM8.216 61.3c.144.07.294.105.439.105a1 1 0 00.444-1.897 1 1 0 00-.883 1.792zM12.216 61.3c.144.07.294.105.439.105a1 1 0 00.444-1.897 1 1 0 00-.883 1.792zM39.419 59.304c-10.048-.85-21.536-4.617-30.731-10.08l-2.727-1.619c.406-.95.641-1.943.87-2.91.068-.29.137-.579.209-.865.211-.827.445-2.175.716-3.734.39-2.245.875-5.039 1.313-6.162l5.99-15.352c.131-.335.25-.696.372-1.065.324-.986.66-2.007 1.288-2.559.354-.312.815-.544 1.26-.749a.835.835 0 00.146-.083l11.853-9.077a1.617 1.617 0 012.004.02l5.944 4.755a1.622 1.622 0 01.054 2.49l-3.792 3.317a1.63 1.63 0 01-2.219-.073 1.623 1.623 0 01.249-2.501l.336-.225-1.111-1.662-.335.224c-.907.604-1.489 1.573-1.597 2.658s.273 2.149 1.044 2.92a3.63 3.63 0 004.949.165l3.189-2.79.981 1.472-5.991 5.136-7.157-.895c.109-.512.234-1.021.38-1.525l-1.92-.557a23.492 23.492 0 00-.926 7.103c.03 1.291.168 2.577.302 3.821.156 1.462.304 2.843.295 4.242-.027 4.189-1.65 8.1-4.341 10.459l1.318 1.504c1.905-1.67 3.316-3.923 4.152-6.5.302-.101.686-.094 1.063-.062a11.78 11.78 0 013.785 1.016 11.894 11.894 0 00-1.182 2.503l1.896.637a9.886 9.886 0 011.047-2.178c.024.016.05.028.073.044l.959-1.399c1.884-2.11 4.66-3.581 7.889-4.064 4.835-.725 9.33.933 11.751 4.317l1.627-1.164c-1.004-1.403-2.306-2.55-3.808-3.42 2.897-2.411 7.09-3.279 10.665-2.037l.656-1.889c-4.508-1.57-9.844-.3-13.271 2.994-2.38-.907-5.106-1.201-7.915-.779-3.739.558-6.961 2.292-9.154 4.787a13.84 13.84 0 00-4.843-1.359 7.178 7.178 0 00-.7-.027 18.51 18.51 0 00.332-3.369c.01-1.514-.151-3.016-.307-4.469-.129-1.203-.262-2.447-.29-3.655a21.422 21.422 0 01.148-2.998l7.666.958c.044.003.086.006.127.006a.998.998 0 00.65-.241l7-6a.998.998 0 00.182-1.313l-1.754-2.632a3.593 3.593 0 00.457-1.803 3.617 3.617 0 00-1.359-2.751l-5.943-4.755a3.617 3.617 0 00-4.474-.042l-11.323 8.712-.37.253c-.535.249-1.143.567-1.666 1.027-1.036.911-1.479 2.252-1.868 3.436-.109.333-.217.66-.335.964l-5.99 15.352c-.511 1.31-.974 3.973-1.421 6.547-.253 1.455-.491 2.83-.683 3.583-.076.297-.147.597-.218.897-.28 1.186-.545 2.305-1.097 3.257a1 1 0 00.354 1.36l3.523 2.093c9.443 5.609 21.25 9.479 31.585 10.353a36 36 0 002.962.108c5.749 0 15.023-1.006 19.423-4.633l-1.271-1.543c-4.544 3.746-15.885 4.501-20.945 4.075z" fill="#fff"/><g stroke-width=".565" fill="#fff" stroke="#fff"><path d="M61.767 27.286c.1.1.3.2.5.2s.4-.1.5-.2c.3-.3.3-.8 0-1l-1.8-1.8c-.3-.3-.8-.3-1 0-.3.3-.3.8 0 1l1.8 1.8zM67.467 33.086c.1.1.3.2.5.2s.4-.1.5-.2c.3-.3.3-.8 0-1l-1.8-1.8c-.3-.3-.8-.3-1 0-.2.3-.3.8 0 1l1.8 1.8zM60.467 33.286c.2 0 .4-.1.5-.2l1.8-1.8c.3-.3.3-.8 0-1-.3-.3-.8-.3-1 0l-1.8 1.7c-.3.3-.3.8 0 1 .1.2.3.3.5.3zM66.267 27.486c.2 0 .4-.1.5-.2l1.8-1.8c.3-.3.3-.8 0-1-.3-.2-.8-.3-1 0l-1.8 1.8c-.3.3-.3.8 0 1 .1.1.3.2.5.2z" transform="matrix(.88398 0 0 .88643 -4.81 -5.506)"/></g><g stroke-width=".565" fill="#fff" stroke="#fff"><path d="M61.767 27.286c.1.1.3.2.5.2s.4-.1.5-.2c.3-.3.3-.8 0-1l-1.8-1.8c-.3-.3-.8-.3-1 0-.3.3-.3.8 0 1l1.8 1.8zM67.467 33.086c.1.1.3.2.5.2s.4-.1.5-.2c.3-.3.3-.8 0-1l-1.8-1.8c-.3-.3-.8-.3-1 0-.2.3-.3.8 0 1l1.8 1.8zM60.467 33.286c.2 0 .4-.1.5-.2l1.8-1.8c.3-.3.3-.8 0-1-.3-.3-.8-.3-1 0l-1.8 1.7c-.3.3-.3.8 0 1 .1.2.3.3.5.3zM66.267 27.486c.2 0 .4-.1.5-.2l1.8-1.8c.3-.3.3-.8 0-1-.3-.2-.8-.3-1 0l-1.8 1.8c-.3.3-.3.8 0 1 .1.1.3.2.5.2z" transform="matrix(.88398 0 0 .88643 .396 -16.506)"/></g><g transform="translate(-3.77)" fill="#fff"><circle cx="8.439" cy="23.002" r="1.015"/><circle cx="8.439" cy="3.724" r="1.015"/><path d="M9.453 7.782a1.014 1.014 0 00-2.029 0v11.161a1.015 1.015 0 002.029 0V7.782z"/></g></svg>