<svg xmlns="http://www.w3.org/2000/svg" viewBox="0 0 48.43 52.75"><defs><style>.cls-1{fill:#703f6c;}</style></defs><title>Comment ButtonAsset 2</title><g id="Layer_2" data-name="Layer 2"><g id="Layer_1-2" data-name="Layer 1"><circle class="cls-1" cx="36.29" cy="40.61" r="12.14"/><path class="cls-1" d="M43,0H21.39a4.74,4.74,0,0,0-4.73,4.74v5.67H4.74A4.74,4.74,0,0,0,0,15.15v9.1A4.74,4.74,0,0,0,4.74,29H6.79L8.42,31.8a1.76,1.76,0,0,0,3.05,0L13,29H26.31a4.74,4.74,0,0,0,4.74-4.73V18.57h3.63l1.56,2.82a1.72,1.72,0,0,0,1.52.88,1.75,1.75,0,0,0,1.53-.88l1.63-2.82h2a4.74,4.74,0,0,0,4.74-4.73V4.74A4.74,4.74,0,0,0,43,0Zm-6.8,16.8a.75.75,0,0,0-.66-.38H21.39a2.59,2.59,0,0,1-2.58-2.58V4.74a2.58,2.58,0,0,1,2.58-2.58H43a2.58,2.58,0,0,1,2.58,2.58v9.1A2.59,2.59,0,0,1,43,16.42H40.1a.77.77,0,0,0-.65.37l-1.68,2.92Zm-9.86,10H12.19a.75.75,0,0,0-.65.38L9.93,30.12,8.25,27.2a.74.74,0,0,0-.65-.37H4.74a2.58,2.58,0,0,1-2.58-2.58v-9.1a2.57,2.57,0,0,1,2.58-2.58H16.66v1.27a4.73,4.73,0,0,0,4.73,4.73h7.5v5.68A2.58,2.58,0,0,1,26.31,26.83Z"/></g></g></svg>