<svg xmlns="http://www.w3.org/2000/svg" viewBox="0 0 48.43 52.75"><defs><style>.cls-1{fill:#703f6c}</style></defs><g id="Layer_2" data-name="Layer 2"><g id="Layer_1-2" data-name="Layer 1"><circle class="cls-1" cx="36.29" cy="40.61" r="12.14"/><path class="cls-1" d="M43 0H21.39a4.74 4.74 0 00-4.73 4.74v5.67H4.74A4.74 4.74 0 000 15.15v9.1A4.74 4.74 0 004.74 29h2.05l1.63 2.8a1.76 1.76 0 003.05 0L13 29h13.31a4.74 4.74 0 004.74-4.73v-5.7h3.63l1.56 2.82a1.72 1.72 0 001.52.88 1.75 1.75 0 001.53-.88l1.63-2.82h2a4.74 4.74 0 004.74-4.73v-9.1A4.74 4.74 0 0043 0zm-6.8 16.8a.75.75 0 00-.66-.38H21.39a2.59 2.59 0 01-2.58-2.58v-9.1a2.58 2.58 0 012.58-2.58H43a2.58 2.58 0 012.58 2.58v9.1A2.59 2.59 0 0143 16.42h-2.9a.77.77 0 00-.65.37l-1.68 2.92zm-9.86 10H12.19a.75.75 0 00-.65.38l-1.61 2.94-1.68-2.92a.74.74 0 00-.65-.37H4.74a2.58 2.58 0 01-2.58-2.58v-9.1a2.57 2.57 0 012.58-2.58h11.92v1.27a4.73 4.73 0 004.73 4.73h7.5v5.68a2.58 2.58 0 01-2.58 2.58z"/></g></g></svg>