<svg xmlns="http://www.w3.org/2000/svg" viewBox="0 0 58 39.74"><g data-name="Layer 2"><path d="M52.24 0H26a5.76 5.76 0 00-5.76 5.76v6.9H5.76A5.76 5.76 0 000 18.41v11.07a5.77 5.77 0 005.76 5.76h2.5l2 3.43a2.14 2.14 0 003.72 0l1.89-3.41H32a5.77 5.77 0 005.76-5.76v-6.9h4.41l1.89 3.4a2.14 2.14 0 003.71 0l2-3.43h2.5A5.76 5.76 0 0058 16.82V5.76A5.76 5.76 0 0052.24 0zM44 20.43a.9.9 0 00-.8-.47H26a3.15 3.15 0 01-3.14-3.14V5.76A3.15 3.15 0 0126 2.62h26.24a3.15 3.15 0 013.14 3.14v11.06A3.15 3.15 0 0152.24 20h-3.48a.9.9 0 00-.79.45l-2 3.55zM32 32.62H14.83a.9.9 0 00-.8.47l-1.95 3.53L10 33.07a.9.9 0 00-.79-.45H5.76a3.15 3.15 0 01-3.14-3.14V18.41a3.14 3.14 0 013.14-3.13h14.49v1.54A5.76 5.76 0 0026 22.58h9.12v6.9A3.15 3.15 0 0132 32.62z" data-name="Layer 1"/></g></svg>