<svg xmlns="http://www.w3.org/2000/svg" viewBox="0 0 50 52.18"><defs><style>.cls-1{fill:#703f6c;fill-rule:evenodd;}.cls-2{fill:#fff;}</style></defs><title>Favorite ButtonAsset 7</title><g id="Layer_2" data-name="Layer 2"><g id="Layer_1-2" data-name="Layer 1"><path class="cls-1" d="M25.07,49.59a4,4,0,0,1-3.47-2l-3.26-5.65H12.79a10.2,10.2,0,0,1-10.2-10.2V12.79a10.2,10.2,0,0,1,10.2-10.2H37.21a10.2,10.2,0,0,1,10.2,10.2v19a10.2,10.2,0,0,1-10.2,10.2H31.8l-3.26,5.65A4,4,0,0,1,25.07,49.59Z"/><path class="cls-2" d="M37.21,5.17a7.64,7.64,0,0,1,7.62,7.62v19a7.64,7.64,0,0,1-7.62,7.62h-6.9l-4,6.93a1.42,1.42,0,0,1-2.46,0l-4-6.93h-7a7.64,7.64,0,0,1-7.62-7.62V12.79a7.64,7.64,0,0,1,7.62-7.62H37.21m0-5.17H12.79A12.81,12.81,0,0,0,0,12.79v19A12.81,12.81,0,0,0,12.79,44.53h4.06l2.51,4.35a6.59,6.59,0,0,0,11.42,0l2.51-4.35h3.92A12.81,12.81,0,0,0,50,31.74V12.79A12.81,12.81,0,0,0,37.21,0Z"/><path class="cls-2" d="M33.49,17.19a4.32,4.32,0,0,0-3.57-3c-1.74-.17-3.49.78-4.94,2.64a5.14,5.14,0,0,0-4.37-2.65,4.61,4.61,0,0,0-4,3.06c-.94,2.36-.18,5.09,2,7.29l5.29,5.3a1.45,1.45,0,0,0,1,.43h0a1.41,1.41,0,0,0,1-.43c.06-.06,3.82-3.8,5.31-5.3C33.51,22.31,34.34,19.55,33.49,17.19Z"/></g></g></svg>