<svg xmlns="http://www.w3.org/2000/svg" viewBox="0 0 36 36"><defs><style>.cls-1{fill:#eaaa0a;fill-rule:evenodd;}</style></defs><title>Instagram ShareAsset 5</title><g id="Layer_2" data-name="Layer 2"><g id="Layer_1-2" data-name="Layer 1"><path class="cls-1" d="M8.81,18A9.19,9.19,0,1,1,18,27.19,9.2,9.2,0,0,1,8.81,18ZM27.49,0h-19A8.54,8.54,0,0,0,0,8.51v19A8.55,8.55,0,0,0,8.51,36h19A8.54,8.54,0,0,0,36,27.49v-19A8.52,8.52,0,0,0,27.49,0Zm-19,2.13h19a6.38,6.38,0,0,1,6.38,6.38v19a6.38,6.38,0,0,1-6.38,6.38h-19a6.38,6.38,0,0,1-6.38-6.38v-19A6.38,6.38,0,0,1,8.51,2.13ZM29.38,4.81a1.87,1.87,0,1,0,1.87,1.87,1.87,1.87,0,0,0-1.87-1.87ZM29.6,18A11.61,11.61,0,1,0,18,29.6,11.61,11.61,0,0,0,29.6,18Z"/></g></g></svg>