<svg xmlns="http://www.w3.org/2000/svg" viewBox="0 0 28 34.97"><defs><style>.cls-1{fill:#eaaa0a;fill-rule:evenodd;}</style></defs><title>Pinterest ShareAsset 6</title><g id="Layer_2" data-name="Layer 2"><g id="Layer_1-2" data-name="Layer 1"><path class="cls-1" d="M14.83,0C5,0,0,6.81,0,12.53a10.92,10.92,0,0,0,.38,3,6.66,6.66,0,0,0,3.87,4.67.7.7,0,0,0,1-.5c.11-.36.32-1.23.43-1.61s.1-.68-.28-1.12A5.49,5.49,0,0,1,4.29,14.9,7,7,0,0,1,4,13C4,8,8,3.42,14.28,3.42c5.56,0,8.63,3.28,8.63,7.68a17.86,17.86,0,0,1-.38,3.73c-.87,4-3.15,7-6.2,7A3.14,3.14,0,0,1,13,17.92c.31-1.2.74-2.45,1.12-3.66a12.92,12.92,0,0,0,.74-3.46,2.72,2.72,0,0,0-2.83-3c-2.22,0-4,2.24-4,5.2a7.82,7.82,0,0,0,.13,1.48,7.33,7.33,0,0,0,.53,1.71s-2.28,9.32-2.66,11A21.68,21.68,0,0,0,6,34.76c0,.23.34.28.49.11a21.13,21.13,0,0,0,3.76-6.57c.23-.91,1.46-5.54,1.46-5.54.7,1.35,2.81,2.53,5.07,2.53,5.41,0,9.43-3.93,10.74-9.65A17.81,17.81,0,0,0,28,11.5C28,5.52,22.78,0,14.83,0Z"/></g></g></svg>