<svg xmlns="http://www.w3.org/2000/svg" viewBox="0 0 60.1 60.1"><defs><style>.cls-1{fill:#eaaa0a;}.cls-2{fill:#fff;}</style></defs><title>Read More ButtonAsset 9</title><g id="Layer_2" data-name="Layer 2"><g id="Layer_1-2" data-name="Layer 1"><path class="cls-1" d="M30.05,57.1a27.05,27.05,0,1,1,27.05-27A27.07,27.07,0,0,1,30.05,57.1Z"/><path class="cls-2" d="M30.05,6A24.05,24.05,0,1,1,6,30.05,24.05,24.05,0,0,1,30.05,6m0-6A30.05,30.05,0,1,0,60.1,30.05a30.08,30.08,0,0,0-30-30Z"/><path class="cls-2" d="M20.83,27.58l-1.56-1.83H17.15v1.83h-.87v-5h3.43c1.18,0,2,.56,2,1.6a1.59,1.59,0,0,1-1.48,1.57l1.63,1.87ZM19.65,25c.72,0,1.21-.23,1.21-.86s-.49-.86-1.21-.86H17.14V25Z"/><path class="cls-2" d="M28.71,26.82v.76h-5v-5h4.95v.75H24.55v1.35H28v.76H24.55v1.42Z"/><path class="cls-2" d="M34.68,26.36H31.44l-.64,1.22h-.93l2.73-5h.95l2.72,5h-1Zm-.39-.73-1.23-2.34-1.23,2.34Z"/><path class="cls-2" d="M43.44,25.06c0,1.55-1.19,2.52-3.06,2.52H37.82v-5h2.56C42.25,22.54,43.44,23.5,43.44,25.06Zm-.88,0c0-1.17-.92-1.77-2.25-1.77H38.68v3.53h1.63C41.64,26.82,42.56,26.22,42.56,25.06Z"/><path class="cls-2" d="M21.92,31.18v5h-.87V32.36l-2.39,2.91h-.05l-2.4-2.91v3.86h-.84v-5h.94l2.34,2.89L21,31.18Z"/><path class="cls-2" d="M23.81,33.7C23.81,32,25,31,26.94,31s3.13,1,3.13,2.67-1.19,2.68-3.13,2.68S23.81,35.37,23.81,33.7Zm5.38,0c0-1.22-.88-1.9-2.25-1.9s-2.25.68-2.25,1.9.88,1.91,2.25,1.91S29.19,34.93,29.19,33.7Z"/><path class="cls-2" d="M36.52,36.22,35,34.39H32.84v1.83H32v-5H35.4c1.17,0,2,.56,2,1.61A1.59,1.59,0,0,1,36,34.35l1.63,1.87Zm-1.18-2.57c.72,0,1.21-.23,1.21-.85s-.49-.86-1.21-.86H32.83v1.71Z"/><path class="cls-2" d="M44.4,35.47v.75h-5v-5h4.95v.76H40.24v1.35h3.44V34H40.24v1.43Z"/></g></g></svg>