<svg xmlns="http://www.w3.org/2000/svg" viewBox="0 0 34 27.2"><g data-name="Layer 2"><path d="M34 3.23a14.94 14.94 0 01-4 1.08A6.85 6.85 0 0033.08.5a14.52 14.52 0 01-4.44 1.68 7 7 0 00-12.08 4.68 7.25 7.25 0 00.2 1.57A19.8 19.8 0 012.38 1.25a7 7 0 00-1 3.45 6.85 6.85 0 003.1 5.72 6.74 6.74 0 01-3.16-.85v.09a6.51 6.51 0 00.48 2.47A7 7 0 007 16.37a6.7 6.7 0 01-1.84.26 5.66 5.66 0 01-1.31-.15 7 7 0 006.51 4.8 14.15 14.15 0 01-8.65 2.93c-.57 0-1.11 0-1.68-.09a20.2 20.2 0 0010.66 3.08 19.4 19.4 0 0019.38-15.38 18.58 18.58 0 00.46-4.15v-.88A14.48 14.48 0 0034 3.23z" fill="#eaaa0a" fill-rule="evenodd" data-name="Layer 1"/></g></svg>