<svg xmlns="http://www.w3.org/2000/svg" viewBox="0 0 34 27.2"><defs><style>.cls-1{fill:#eaaa0a;fill-rule:evenodd;}</style></defs><title>Twitter ShareAsset 4</title><g id="Layer_2" data-name="Layer 2"><g id="Layer_1-2" data-name="Layer 1"><path class="cls-1" d="M34,3.23a14.94,14.94,0,0,1-4,1.08A6.85,6.85,0,0,0,33.08.5a14.52,14.52,0,0,1-4.44,1.68A7,7,0,0,0,16.56,6.86a7.25,7.25,0,0,0,.2,1.57A19.8,19.8,0,0,1,2.38,1.25a7,7,0,0,0-1,3.45,6.85,6.85,0,0,0,3.1,5.72,6.74,6.74,0,0,1-3.16-.85v.09a6.51,6.51,0,0,0,.48,2.47A7,7,0,0,0,7,16.37a6.7,6.7,0,0,1-1.84.26,5.66,5.66,0,0,1-1.31-.15,7,7,0,0,0,6.51,4.8,14.15,14.15,0,0,1-8.65,2.93c-.57,0-1.11,0-1.68-.09A20.2,20.2,0,0,0,10.69,27.2,19.4,19.4,0,0,0,30.07,11.82a18.58,18.58,0,0,0,.46-4.15V6.79A14.48,14.48,0,0,0,34,3.23Z"/></g></g></svg>